<?xml version="1.0" encoding="UTF-8"?>
<svg xmlns="http://www.w3.org/2000/svg" viewBox="0 0 100 100" width="100" height="100">
  <defs>
    <radialGradient id="g1" cx="50%" cy="40%" r="60%">
      <stop offset="0%" stop-color="#a06a3a"/>
      <stop offset="100%" stop-color="#5a3010"/>
    </radialGradient>
  </defs>
  <path d="M 50 15
           C 35 15 30 30 40 40
           C 20 42 15 58 32 62
           C 10 65 12 85 30 88
           L 70 88
           C 88 85 90 65 68 62
           C 85 58 80 42 60 40
           C 70 30 65 15 50 15 Z"
        fill="url(#g1)" stroke="#3a1c08" stroke-width="2" stroke-linejoin="round"/>
  <ellipse cx="42" cy="58" rx="4" ry="5" fill="white"/>
  <ellipse cx="58" cy="58" rx="4" ry="5" fill="white"/>
  <circle cx="42" cy="59" r="2.2" fill="#111"/>
  <circle cx="58" cy="59" r="2.2" fill="#111"/>
  <path d="M 40 73 Q 50 80 60 73" stroke="#2a1004" stroke-width="2.5" fill="none" stroke-linecap="round"/>
</svg>
